<?xml version="1.0" encoding="UTF-8"?>
<svg id="Layer_1" data-name="Layer 1" xmlns="http://www.w3.org/2000/svg" version="1.1" viewBox="0 0 711.8 201.7">
  <defs>
    <style>
      .cls-1 {
        fill: #97c93d;
      }

      .cls-1, .cls-2 {
        stroke-width: 0px;
      }

      .cls-3 {
        font-family: MADETOMMY-Bold, 'MADE TOMMY';
        font-size: 127px;
        font-weight: 700;
      }

      .cls-3, .cls-2 {
        fill: #fff;
      }
    </style>
  </defs>
  <rect class="cls-2" y="192.1" width="710.6" height="9.6"/>
  <path class="cls-1" d="M96,24S72,0,0,0v144c72.8,0,96,24,96,24,0,0,23.3-24,96-24V0c-72,0-96,24-96,24ZM24,24c30.5,2.6,49.2,9.6,60,15.3v96.7c-10.8-5.7-29.5-12.8-60-15.3V24ZM168.1,120.7c-30.5,2.6-49.2,9.6-60,15.3V39.3c10.8-5.7,29.5-12.8,60-15.3v96.7Z"/>
  <text class="cls-3" transform="translate(221.3 104.5)"><tspan x="0" y="0">BOOKIA</tspan></text>
  <path class="cls-2" d="M289.9,125h4.5v10.9c0,4.8-3.4,7.7-8,7.7s-8-3.1-8-7.7v-10.9h4.5v10.9c0,2.2,1.3,3.5,3.5,3.5s3.5-1.3,3.5-3.5v-10.9ZM314.1,125h4.5v18.4h-4.5l-7.2-10.8v10.8h-4.5v-18.4h4.5l7.2,10.8v-10.8ZM326.8,125h4.5v18.4h-4.5v-18.4ZM346,143.4h-6.5v-18.4h6.5c5.6,0,9.5,3.7,9.5,9.2s-4.1,9.2-9.5,9.2ZM344,129.2v10h2c3.2,0,5-2,5-5s0-1.3-.3-2c-.8-2.2-2.5-3.1-4.7-3.1,0,0-2,0-2,0ZM371.9,139.4c3.3,0,5-2.1,5-5.2s-1.8-5.2-5-5.2-5,2.1-5,5.2,1.8,5.2,5,5.2ZM371.9,143.5c-5.7,0-9.5-3.8-9.5-9.3s4-9.3,9.5-9.3,9.5,3.8,9.5,9.3-4,9.3-9.5,9.3ZM388,142.9v-4.2c.4,0,.8.2,1.3.2.5,0,1.1.2,1.6.2s1.1,0,1.7,0,1.2,0,1.7,0c1.4,0,2.4,0,3-.2.6-.2.9-.4.9-.8s-.3-.6-.5-.8c-1-.7-2.2-.9-3.3-1.2-3.3-.7-6.3-2-6.3-5.8s4.2-5.5,7.9-5.5,4.1.2,6,.7v4.2c-.3,0-.7-.2-1.2-.2-.5,0-1-.1-1.6-.2-1.2-.1-2.3-.2-3.5-.2s-2,0-2.7.2c-.4.2-.7.3-.7.8s0,.5.2.6c.1.2.3.4.6.5.8.5,1.9.7,2.8.9.8.2,1.5.4,2.3.6,2.6.7,4.4,2.2,4.4,5,0,4.7-4.6,5.7-8.4,5.7s-4.2-.2-6.2-.6ZM421.3,143.4v-18.4h8.7c3.4,0,6.3,2.6,6.3,6s-3,6-6.3,6h-4.2v6.3h-4.5ZM430,129.2h-4.2v3.7h4.2c1.1,0,1.8-.8,1.8-1.9s-.8-1.9-1.8-1.9ZM452.2,139.4c3.3,0,5-2.1,5-5.2s-1.8-5.2-5-5.2-5,2.1-5,5.2,1.8,5.2,5,5.2ZM452.2,143.5c-5.7,0-9.5-3.8-9.5-9.3s4-9.3,9.5-9.3,9.5,3.8,9.5,9.3-4,9.3-9.5,9.3ZM473.8,129.2v4.4h4.2c1.4,0,2.2-.8,2.2-2.2s-.8-2.2-2.2-2.2h-4.2ZM480.6,136.6c.8,1.1,1.7,2.3,2.6,3.4.8,1.1,1.7,2.3,2.5,3.4h-5.5c-1.1-1.4-2.1-2.9-3.2-4.3-1.1-1.4-2.1-2.9-3.2-4.3v8.6h-4.5v-18.4h8.7c3.4,0,6.3,2.6,6.3,6.1s-1.5,4.6-3.7,5.5ZM503.8,125h13.7v4.2h-9.2v2.9h7.4v4.2h-7.4v2.9h9.2v4.2h-13.7v-18.4ZM538.5,139.2v4.2h-13.7v-18.4h4.5v14.2s9.2,0,9.2,0ZM556.1,142.9v-4.2c.4,0,.8.2,1.3.2.5,0,1.1.2,1.6.2s1.1,0,1.7,0,1.2,0,1.7,0c1.4,0,2.4,0,3-.2.6-.2.9-.4.9-.8s-.3-.6-.5-.8c-1-.7-2.2-.9-3.3-1.2-3.3-.7-6.3-2-6.3-5.8s4.2-5.5,7.9-5.5,4.1.2,6,.7v4.2c-.3,0-.7-.2-1.2-.2-.5,0-1-.1-1.6-.2-1.2-.1-2.3-.2-3.5-.2s-2,0-2.7.2c-.4.2-.7.3-.7.8s0,.5.2.6c.1.2.3.4.6.5.8.5,1.9.7,2.8.9.8.2,1.5.4,2.3.6,2.6.7,4.4,2.2,4.4,5,0,4.7-4.6,5.7-8.4,5.7s-4.2-.2-6.2-.6ZM589.3,139.7h-6.8l-1.3,3.7h-4.9l7.4-18.4h4.5l7.4,18.4h-4.9l-1.3-3.7ZM584,135.5h3.8l-1.9-5.4-1.9,5.4ZM615.7,133.9c1.3.9,2.1,2.3,2.1,3.9,0,3.1-2.9,5.5-5.9,5.5h-9.8v-18.4h9.2c2.4,0,4.4,1.3,5.4,3.4.3.7.5,1.4.5,2.1,0,1.4-.5,2.5-1.5,3.4ZM606.7,129.2v2.9h4.7c.8,0,1.4-.8,1.4-1.5s-.6-1.4-1.4-1.4h-4.7ZM606.7,136.3v2.9h5.3c.8,0,1.4-.7,1.4-1.4s-.2-.8-.4-1.1c-.3-.3-.6-.4-1-.4,0,0-5.3,0-5.3,0ZM625.2,125h13.7v4.2h-9.2v2.9h7.4v4.2h-7.4v2.9h9.2v4.2h-13.7v-18.4ZM650.7,129.2v4.4h4.2c1.4,0,2.2-.8,2.2-2.2s-.8-2.2-2.2-2.2h-4.2ZM657.5,136.6c.8,1.1,1.7,2.3,2.6,3.4.8,1.1,1.7,2.3,2.5,3.4h-5.5c-1.1-1.4-2.1-2.9-3.2-4.3-1.1-1.4-2.1-2.9-3.2-4.3v8.6h-4.5v-18.4h8.7c3.4,0,6.3,2.6,6.3,6.1s-1.5,4.6-3.7,5.5h0Z"/>
</svg>