<?xml version="1.0" encoding="UTF-8"?>
<svg id="Layer_1" data-name="Layer 1" xmlns="http://www.w3.org/2000/svg" version="1.1" viewBox="0 0 711.8 201.7">
  <defs>
    <style>
      .cls-1 {
        fill: #97c93d;
      }

      .cls-1, .cls-2 {
        stroke-width: 0px;
      }

      .cls-2 {
        fill: #1c2837;
      }

      .cls-3 {
        isolation: isolate;
      }
    </style>
  </defs>
  <rect class="cls-2" y="192.1" width="710.6" height="9.6"/>
  <path class="cls-1" d="M96,24S72,0,0,0v144c72.8,0,96,24,96,24,0,0,23.3-24,96-24V0c-72,0-96,24-96,24ZM24,24c30.5,2.6,49.2,9.6,60,15.3v96.7c-10.8-5.7-29.5-12.8-60-15.3V24ZM168.1,120.7c-30.5,2.6-49.2,9.6-60,15.3V39.3c10.8-5.7,29.5-12.8,60-15.3v96.7Z"/>
  <g class="cls-3">
    <path class="cls-2" d="M297.4,77.4c0,15.7-9.5,27.1-32.8,27.1h-35.7V15.6h32.4c21.5,0,32.4,9.4,32.4,24.5s-3.4,13.8-9.5,17.4v.4c8.5,3.7,13.2,10.3,13.2,19.6ZM250.8,32.7v19.3h9.4c7.9,0,11.7-3.9,11.7-9.7s-4.2-9.7-11.7-9.7h-9.4ZM275.3,76.6c0-6.1-4.1-9.7-11.8-9.7h-12.7v20.4h12.7c8.1,0,11.8-4.7,11.8-10.8Z"/>
    <path class="cls-2" d="M396.1,60.1c0,26.4-18.9,46.1-45.2,46.1s-45.2-19.7-45.2-46.1,18.9-46,45.2-46,45.2,19.7,45.2,46ZM374.2,60.1c0-12.6-7.9-25-23.4-25s-23.4,12.4-23.4,25,7.9,25.1,23.4,25.1,23.4-12.6,23.4-25.1Z"/>
    <path class="cls-2" d="M495.4,60.1c0,26.4-18.9,46.1-45.2,46.1s-45.2-19.7-45.2-46.1,18.9-46,45.2-46,45.2,19.7,45.2,46ZM473.5,60.1c0-12.6-7.9-25-23.4-25s-23.4,12.4-23.4,25,7.9,25.1,23.4,25.1,23.4-12.6,23.4-25.1Z"/>
    <path class="cls-2" d="M557.3,104.5l-28.2-40.6v40.6h-21.7V15.6h21.7v39.5l27.2-39.5h24.3l-30.7,43.1,32.9,45.8h-25.4Z"/>
    <path class="cls-2" d="M613.3,15.6v88.9h-21.7V15.6h21.7Z"/>
    <path class="cls-2" d="M684,88h-33.7l-5.2,16.5h-22.9l32-88.9h25.7l32,88.9h-22.7l-5.2-16.5ZM678.8,71.5l-11.7-37-11.7,37h23.4Z"/>
  </g>
  <path class="cls-2" d="M289.9,125h4.5v10.9c0,4.8-3.4,7.7-8,7.7s-8-3.1-8-7.7v-10.9h4.5v10.9c0,2.2,1.3,3.5,3.5,3.5s3.5-1.3,3.5-3.5c0,0,0-10.9,0-10.9ZM314.1,125h4.5v18.4h-4.5l-7.2-10.8v10.8h-4.5v-18.4h4.5l7.2,10.8v-10.8h0ZM326.8,125h4.5v18.4h-4.5s0-18.4,0-18.4ZM346,143.4h-6.5v-18.4h6.5c5.6,0,9.5,3.7,9.5,9.2s-4.1,9.2-9.5,9.2ZM344,129.2v10h2c3.2,0,5-2,5-5s0-1.3-.3-2c-.8-2.2-2.5-3.1-4.7-3.1h-2ZM371.9,139.4c3.3,0,5-2.1,5-5.2s-1.8-5.2-5-5.2-5,2.1-5,5.2,1.8,5.2,5,5.2ZM371.9,143.5c-5.7,0-9.5-3.8-9.5-9.3s4-9.3,9.5-9.3,9.5,3.8,9.5,9.3-4,9.3-9.5,9.3ZM388,142.9v-4.2c.4,0,.8.2,1.3.2s1.1.2,1.6.2h3.4c1.4,0,2.4,0,3-.2s.9-.4.9-.8-.3-.6-.5-.8c-1-.7-2.2-.9-3.3-1.2-3.3-.7-6.3-2-6.3-5.8s4.2-5.5,7.9-5.5,4.1.2,6,.7v4.2c-.3,0-.7-.2-1.2-.2s-1-.1-1.6-.2c-1.2-.1-2.3-.2-3.5-.2s-2,0-2.7.2c-.4.2-.7.3-.7.8s0,.5.2.6c.1.2.3.4.6.5.8.5,1.9.7,2.8.9.8.2,1.5.4,2.3.6,2.6.7,4.4,2.2,4.4,5,0,4.7-4.6,5.7-8.4,5.7s-4.2-.2-6.2-.6h0ZM421.3,143.4v-18.4h8.7c3.4,0,6.3,2.6,6.3,6s-3,6-6.3,6h-4.2v6.3h-4.5ZM430,129.2h-4.2v3.7h4.2c1.1,0,1.8-.8,1.8-1.9s-.8-1.9-1.8-1.9h0ZM452.2,139.4c3.3,0,5-2.1,5-5.2s-1.8-5.2-5-5.2-5,2.1-5,5.2,1.8,5.2,5,5.2ZM452.2,143.5c-5.7,0-9.5-3.8-9.5-9.3s4-9.3,9.5-9.3,9.5,3.8,9.5,9.3-4,9.3-9.5,9.3ZM473.8,129.2v4.4h4.2c1.4,0,2.2-.8,2.2-2.2s-.8-2.2-2.2-2.2h-4.2ZM480.6,136.6c.8,1.1,1.7,2.3,2.6,3.4.8,1.1,1.7,2.3,2.5,3.4h-5.5c-1.1-1.4-2.1-2.9-3.2-4.3-1.1-1.4-2.1-2.9-3.2-4.3v8.6h-4.5v-18.4h8.7c3.4,0,6.3,2.6,6.3,6.1s-1.5,4.6-3.7,5.5h0ZM503.8,125h13.7v4.2h-9.2v2.9h7.4v4.2h-7.4v2.9h9.2v4.2h-13.7v-18.4h0ZM538.5,139.2v4.2h-13.7v-18.4h4.5v14.2h9.2ZM556.1,142.9v-4.2c.4,0,.8.2,1.3.2s1.1.2,1.6.2h3.4c1.4,0,2.4,0,3-.2s.9-.4.9-.8-.3-.6-.5-.8c-1-.7-2.2-.9-3.3-1.2-3.3-.7-6.3-2-6.3-5.8s4.2-5.5,7.9-5.5,4.1.2,6,.7v4.2c-.3,0-.7-.2-1.2-.2s-1-.1-1.6-.2c-1.2-.1-2.3-.2-3.5-.2s-2,0-2.7.2c-.4.2-.7.3-.7.8s0,.5.2.6c0,.2.3.4.6.5.8.5,1.9.7,2.8.9.8.2,1.5.4,2.3.6,2.6.7,4.4,2.2,4.4,5,0,4.7-4.6,5.7-8.4,5.7s-4.2-.2-6.2-.6h0ZM589.3,139.7h-6.8l-1.3,3.7h-4.9l7.4-18.4h4.5l7.4,18.4h-4.9l-1.3-3.7h-.1ZM584,135.5h3.8l-1.9-5.4-1.9,5.4h0ZM615.7,133.9c1.3.9,2.1,2.3,2.1,3.9,0,3.1-2.9,5.5-5.9,5.5h-9.8v-18.4h9.2c2.4,0,4.4,1.3,5.4,3.4.3.7.5,1.4.5,2.1,0,1.4-.5,2.5-1.5,3.4h0ZM606.7,129.2v2.9h4.7c.8,0,1.4-.8,1.4-1.5s-.6-1.4-1.4-1.4h-4.7ZM606.7,136.3v2.9h5.3c.8,0,1.4-.7,1.4-1.4s-.2-.8-.4-1.1c-.3-.3-.6-.4-1-.4h-5.3ZM625.2,125h13.7v4.2h-9.2v2.9h7.4v4.2h-7.4v2.9h9.2v4.2h-13.7v-18.4h0ZM650.7,129.2v4.4h4.2c1.4,0,2.2-.8,2.2-2.2s-.8-2.2-2.2-2.2h-4.2ZM657.5,136.6c.8,1.1,1.7,2.3,2.6,3.4.8,1.1,1.7,2.3,2.5,3.4h-5.5c-1.1-1.4-2.1-2.9-3.2-4.3-1.1-1.4-2.1-2.9-3.2-4.3v8.6h-4.5v-18.4h8.7c3.4,0,6.3,2.6,6.3,6.1s-1.5,4.6-3.7,5.5h0Z"/>
</svg>